<?xml version="1.0" encoding="UTF-8" standalone="no"?>
<!-- Created with Inkscape (http://www.inkscape.org/) -->

<svg
   width="512"
   height="512"
   viewBox="0 0 512 512"
   version="1.1"
   id="svg5"
   inkscape:export-filename="dtf.svg"
   inkscape:export-xdpi="96"
   inkscape:export-ydpi="96"
   xmlns:inkscape="http://www.inkscape.org/namespaces/inkscape"
   xmlns:sodipodi="http://sodipodi.sourceforge.net/DTD/sodipodi-0.dtd"
   xmlns="http://www.w3.org/2000/svg"
   xmlns:svg="http://www.w3.org/2000/svg">
  <sodipodi:namedview
     id="namedview7"
     pagecolor="#ffffff"
     bordercolor="#000000"
     borderopacity="0.25"
     inkscape:showpageshadow="2"
     inkscape:pageopacity="0.0"
     inkscape:pagecheckerboard="0"
     inkscape:deskcolor="#d1d1d1"
     inkscape:document-units="px"
     showgrid="false"
     showguides="true" />
  <defs
     id="defs2">
    <inkscape:path-effect
       effect="skeletal"
       id="path-effect3668"
       is_visible="true"
       lpeversion="1"
       pattern="m -164.45088,-233.52025 v 149.495957 h 41.00469 V -233.52025 h -9.62456 c -4e-5,13.44788 -7.72491,50.84953 -10.87778,50.84927 -3.15288,2.5e-4 -11.38203,-37.40139 -11.38207,-50.84927 z"
       copytype="repeated_stretched"
       prop_scale="1"
       scale_y_rel="false"
       spacing="0"
       normal_offset="0"
       tang_offset="0"
       prop_units="false"
       vertical_pattern="false"
       hide_knot="false"
       fuse_tolerance="0" />
  </defs>
  <g
     inkscape:label="Layer 1"
     inkscape:groupmode="layer"
     id="layer1">
    <path
       id="path3665"
       style="fill:#1a1a1a;stroke-width:20.1298"
       d="M 586.74796,256 H 437.252 c 0.46071,9.09756 -0.14667,18.28288 -1.70358,27.43739 l 145.44261,26.61252 c 0.78343,-4.13003 1.49087,-8.28542 2.12079,-12.46465 -6.42212,-0.90219 -18.85452,-5.20715 -29.18993,-9.20528 -10.49982,-4.06173 -19.41264,-7.9586 -19.24305,-9.68968 0.16934,-1.73112 9.69849,-4.07043 20.86628,-6.3237 10.97576,-2.21452 24.16887,-4.41079 30.67444,-4.14231 0.24936,-4.05698 0.42593,-8.13218 0.5284,-12.22429 z m -5.75693,54.04991 -145.44261,-26.61252 c -1.55692,9.15451 -4.06337,18.27823 -7.40081,27.25259 l 138.81108,50.64685 c 1.40307,-3.88602 2.73668,-7.80395 3.9993,-11.75225 -6.16942,-1.985 -17.67318,-8.29758 -27.17299,-13.97884 -9.6419,-5.76623 -17.72656,-11.11303 -17.27254,-12.77158 0.45378,-1.65863 10.17108,-2.28003 21.44699,-2.50614 11.09442,-0.22247 24.28868,-0.0157 30.60106,1.39314 0.87754,-3.86677 1.68815,-7.75762 2.43052,-11.67125 z m -14.03234,51.28692 -138.81108,-50.64685 c -3.33744,8.97437 -7.50588,17.79939 -12.38675,26.35652 l 129.60136,72.10298 c 1.96705,-3.58637 3.87118,-7.21118 5.71086,-10.87289 -5.80019,-2.95729 -16.19074,-11.01389 -24.70445,-18.15312 -8.63407,-7.24016 -15.77649,-13.82845 -15.06538,-15.38713 0.71088,-1.55879 10.40571,-0.57419 21.55696,1.07914 10.98369,1.62848 23.91743,4.04157 29.92403,6.48136 1.45298,-3.62382 2.8449,-7.27759 4.17445,-10.96001 z M 545.36222,409.14948 415.76086,337.0465 c -4.88088,8.55713 -10.4742,16.84637 -16.66141,24.74916 l 117.81343,90.98092 c 2.4754,-3.23107 4.8944,-6.50711 7.25547,-9.82658 -5.3133,-3.81668 -14.40826,-13.35845 -21.78429,-21.72813 -7.47633,-8.4835 -13.56242,-16.10486 -12.62158,-17.53632 0.94064,-1.43161 10.40239,1.04711 21.19622,4.43214 10.64068,3.33701 23.05798,7.76225 28.64334,11.12236 1.97569,-3.32814 3.89618,-6.6921 5.76018,-10.09057 z m -28.44934,43.6271 -117.81343,-90.98092 c -6.18722,7.9028 -12.96833,15.41916 -20.22479,22.43053 l 103.44732,107.28066 c 2.92808,-2.82012 5.8063,-5.69174 8.63313,-8.61332 -4.70904,-4.56107 -12.32553,-15.33335 -18.41253,-24.70386 -6.16868,-9.49626 -11.08436,-17.94227 -9.94113,-19.21917 1.14304,-1.27707 10.1611,2.58387 20.36474,7.55289 10.06396,4.90099 21.71179,11.14844 26.759,15.31611 2.44567,-2.97973 4.842,-6.00113 7.18769,-9.06292 z m -34.5909,38.73027 -103.44732,-107.28066 c -7.25646,7.01136 -14.98827,13.51775 -23.07688,19.4006 l 86.503,121.00221 c 3.32512,-2.35352 6.60691,-4.76507 9.84384,-7.23311 -3.98853,-5.18899 -9.94137,-16.94005 -14.58916,-27.08031 -4.71112,-10.27843 -8.34231,-19.34066 -7.02404,-20.43565 1.31811,-1.0952 9.68186,4.03606 19.06255,10.44135 9.25336,6.31834 19.87901,14.20229 24.271,19.06264 2.86291,-2.57858 5.68234,-5.20471 8.45701,-7.87707 z m -40.0212,33.12215 -86.503,-121.00221 c -8.08861,5.88284 -16.53403,11.14216 -25.2177,15.65939 l 66.9805,132.14557 c 3.66651,-1.83127 7.29622,-3.7271 10.88759,-5.68595 -3.15355,-5.69981 -7.25401,-18.17919 -10.31418,-28.85748 -3.10365,-10.83002 -5.33627,-20.30003 -3.8703,-21.18578 1.46584,-0.88597 8.96466,5.40372 17.28962,13.09754 8.20975,7.58734 17.55879,16.9255 21.17935,22.36193 3.22742,-2.1247 6.41722,-4.3028 9.56812,-6.53301 z m -44.7402,26.80275 -66.9805,-132.14557 c -8.68367,4.51724 -17.60559,8.29239 -26.64723,11.20691 l 44.8798,140.71073 c 3.95225,-1.25337 7.87422,-2.57782 11.7644,-3.97183 -2.20622,-6.09395 -4.26137,-19.05037 -5.5876,-30.03537 -1.34627,-11.15104 -2.06623,-20.82041 -0.47992,-21.46957 1.58622,-0.64939 8.00951,6.68682 15.04597,15.52146 6.93479,8.70698 14.74944,19.31907 17.48405,25.21399 3.53919,-1.61808 7.04663,-3.29543 10.52103,-5.03075 z m -48.74793,19.77207 -44.8798,-140.71073 c -9.04163,2.91453 -18.20297,4.96842 -27.36548,6.04315 l 20.20091,146.69769 c 4.18233,-0.61982 8.34092,-1.31725 12.47425,-2.09077 -1.14848,-6.37311 -0.96148,-19.55185 -0.40941,-30.61398 0.56102,-11.24146 1.4678,-20.90177 3.14711,-21.287 1.67926,-0.38547 6.81639,7.88538 12.33159,17.71312 5.43077,9.67728 11.44871,21.38297 13.1851,27.61881 3.79822,-1.05873 7.57057,-2.18259 11.31573,-3.37029 z m -52.04437,12.03011 -20.20091,-146.69769 c -6.8718,0.80603 -13.74427,1.06129 -20.56737,0.71576 -2.27446,0.11518 -4.5544,0.1636 -6.83798,0.14712 l -6.89504,148.7243 c 4.2765,0.28218 8.57348,0.48348 12.8894,0.60236 0.007,-2.32116 0.32511,-5.34304 0.84362,-8.76423 1.19336,-7.92828 3.65159,-19.15242 5.73634,-27.34604 2.16836,-8.52221 4.20688,-15.00112 5.65073,-15.07885 1.74495,-0.0942 5.38532,8.99938 9.14648,19.67249 3.70008,10.49973 7.65419,23.11573 8.28249,29.5764 4.00453,-0.44664 7.98904,-0.96428 11.95224,-1.55162 z m -54.5013,2.88949 6.89504,-148.7243 c -9.13403,-0.0659 -18.32617,-1.17033 -27.45787,-3.19462 l -32.863,144.0264 c 4.07425,0.94355 8.17549,1.81276 12.3022,2.60608 1.18315,-6.36975 6.01498,-18.58753 10.45489,-28.72803 4.50949,-10.29938 8.78839,-19.01585 10.5039,-18.77259 1.71556,0.24302 3.61489,9.83895 5.3475,21.05559 1.70328,11.02673 3.28029,24.24507 2.71649,30.71269 4.01436,0.41136 8.04841,0.75138 12.10085,1.01878 z m -53.42583,-7.89252 32.863,-144.0264 c -9.13171,-2.02429 -18.20297,-4.96848 -27.09526,-8.71401 l -56.25275,136.75029 c 3.81633,1.54928 7.66619,3.03075 11.54806,4.44285 2.23853,-6.0881 9.01166,-17.33072 15.07862,-26.59817 6.15635,-9.40399 11.83307,-17.26378 13.46921,-16.74292 1.63623,0.52062 1.84563,10.25205 1.58802,21.51861 -0.25354,11.08838 -1.03033,24.24177 -2.70716,30.48839 3.81097,1.02635 7.64749,1.98724 11.50826,2.88136 z m -50.48501,-15.99012 56.25275,-136.75029 c -8.89228,-3.74554 -17.60558,-8.29244 -26.02135,-13.52214 l -77.064316,126.896 c 3.502765,2.09936 7.045596,4.13743 10.626956,6.11268 3.18282,-5.6895 11.63482,-15.77322 19.10309,-24.01672 7.57262,-8.35868 14.43873,-15.24771 15.96817,-14.4766 1.52955,0.77088 0.16092,10.42719 -1.9392,21.5109 -2.06905,10.9198 -5.00324,23.74825 -7.68357,29.66044 3.55484,1.58861 7.1411,3.11762 10.75747,4.58573 z m -46.832916,-23.37643 77.064316,-126.896 c -8.41577,-5.22969 -16.53401,-11.1422 -24.23617,-17.61896 L 49.053686,508.8129 c 3.133551,2.59379 6.313699,5.13281 9.538909,7.61555 4.013635,-5.17321 13.886773,-13.91574 22.528273,-20.98367 8.75831,-7.16346 16.605382,-12.96764 18.000765,-11.97363 1.395537,0.9938 -1.43924,10.36437 -5.23413,21.03248 -3.741648,10.51843 -8.640089,22.76702 -12.212756,28.22883 3.24598,2.09813 6.52924,4.14253 9.848477,6.13189 z M 49.053686,508.8129 144.35137,394.34939 c -7.70216,-6.47676 -14.98824,-13.51778 -21.7397,-21.00452 L 11.658807,472.7977 c 2.708687,3.03256 5.470502,6.01689 8.283911,8.95146 4.729012,-4.53973 15.769509,-11.75778 25.354175,-17.49899 9.71342,-5.81834 18.333028,-10.42358 19.567015,-9.23403 1.234167,1.18938 -2.954853,10.0636 -8.296797,20.08332 -5.269164,9.88322 -11.943015,21.29922 -16.294702,26.19358 2.884381,2.55492 5.811908,5.06198 8.781277,7.51986 z M 11.658807,472.7977 122.61167,373.34487 c -6.75146,-7.48673 -12.96829,-15.41917 -18.53195,-23.67878 l -124.02985,81.86394 c 2.228173,3.41569 4.516004,6.78968 6.861961,10.12044 5.3276798,-3.79043 17.284297,-9.29801 27.580799,-13.56272 10.437949,-4.3233 19.621664,-7.61553 20.666911,-6.25777 1.04545,1.35761 -4.385917,9.52486 -11.127192,18.66343 -6.649562,9.01425 -14.9140629,19.34469 -19.9294156,23.55466 2.4700491,2.95898 4.9891084,5.87596 7.5558736,8.74963 z M -19.95013,431.53003 104.07972,349.66609 C 98.516053,341.40648 93.605562,332.81971 89.466789,324.02431 l -134.528632,61.69688 c 1.692008,3.74316 3.450206,7.45115 5.27306,11.12245 5.809243,-2.92717 18.431531,-6.53454 29.208144,-9.17484 10.93189453,-2.67835 20.4712907,-4.54349 21.300454,-3.04487 0.829386,1.4985 -5.7324325,8.74817 -13.7253157,16.77282 -7.8812843,7.91261 -17.5547913,16.90237 -23.1168953,20.3121 2.002982,3.3103 4.060839,6.58446 6.172266,9.82118 z M -45.061843,385.72119 89.466789,324.02431 c -4.138772,-8.79539 -7.505826,-17.7994 -9.982615,-26.89348 L -62.96505,336.08244 c 1.100193,4.01498 2.273106,8.00133 3.517207,11.95751 6.174418,-1.95206 19.210496,-3.46524 30.236209,-4.33535 11.19526,-0.88349 20.8819088,-1.20744 21.4676453,0.40468 0.5859752,1.61204 -6.9943993,7.73353 -16.0911673,14.41149 -8.963535,6.58015 -19.865994,13.9704 -25.857142,16.46587 1.48318,3.60889 3.0271,7.18751 4.630455,10.73455 z M -62.96505,336.08244 79.484174,297.13083 c -2.476788,-9.09408 -4.063311,-18.27823 -4.641022,-27.4339 L -72.94847,283.32507 c 0.452728,4.23116 0.984707,8.44021 1.594405,12.62563 6.425277,-0.86694 19.619117,-0.0883 30.664995,0.95574 11.228041,1.06128 20.853516,2.39259 21.168482,4.09087 0.315216,1.69825 -8.171818,6.48093 -18.224748,11.57943 -9.896666,5.01925 -21.847319,10.54642 -28.150155,12.016 0.910644,3.85474 1.887893,7.68508 2.930441,11.4897 z m -9.98342,-52.75737 147.791622,-13.62814 c -0.288846,-4.5777 -0.325505,-9.14828 -0.09516,-13.69693 -0.230361,-4.54892 -0.193684,-9.11977 0.09521,-13.69775 L -72.948298,228.67332 c -0.452748,4.23116 -0.826244,8.48441 -1.118956,12.75825 6.505551,0.31995 19.331473,3.52107 30.02903,6.59384 10.872552,3.12304 20.156661,6.21681 20.139537,7.9739 0,0 -7e-6,6.9e-4 -7e-6,6.9e-4 0.01468,1.75736 -9.267313,4.99054 -20.128184,8.27659 -10.682151,3.23198 -23.495111,6.62753 -29.993815,6.96183 0.285374,4.04786 0.643216,8.07718 1.072223,12.08665 z m 1.72e-4,-54.65175 147.791502,13.62893 c 0.57777,-9.15567 2.16435,-18.33982 4.641191,-27.4339 L -62.964633,175.91604 c -1.100211,4.01497 -2.127702,8.05859 -3.08094,12.12931 6.310202,1.45729 18.301608,6.79931 28.237885,11.66704 10.089586,4.94283 18.602574,9.59073 18.287346,11.28897 -0.314981,1.69829 -9.964535,3.16463 -21.215481,4.38582 -11.063538,1.20085 -24.290395,2.17091 -30.713209,1.31861 -0.57005,3.96846 -1.07024,7.95807 -1.499266,11.96753 z m 9.983665,-52.75728 142.449028,38.95231 c 2.476841,-9.09407 5.843945,-18.09807 9.982763,-26.89345 L -45.061201,126.27739 c -1.692025,3.74315 -3.31786,7.52147 -4.875974,11.33343 5.999468,2.48512 16.969472,9.7024 25.995134,16.14095 9.156709,6.53204 16.7844942,12.52566 16.1985085,14.13769 -0.5857508,1.61212 -10.3181425,1.41651 -21.5608175,0.68441 -11.067941,-0.72072 -24.16422,-2.0552 -30.337991,-3.99323 -1.171861,3.75188 -2.279726,7.53078 -3.322292,11.3354 z m 17.903432,-49.63865 134.528359,61.69751 c 4.138818,-8.79538 9.049352,-17.38214 14.613052,-25.64173 L -19.949284,80.468666 c -2.228188,3.415676 -4.396718,6.87305 -6.504057,10.370589 5.571453,3.401255 15.33696,12.232535 23.3007757,20.015595 8.0739218,7.89067 14.7024213,15.02156 13.8730253,16.52005 -0.8291765,1.49861 -10.43379248,-0.24706 -21.435428,-2.78473 -10.841337,-2.50069 -23.548589,-5.94391 -29.359119,-8.85783 -1.720937,3.48257 -3.383743,6.99802 -4.987114,10.54505 z M -19.949284,80.468666 104.08021,162.33317 c 5.5637,-8.25959 11.78057,-16.19201 18.53206,-23.67872 L 11.659835,39.201146 C 8.951134,42.233695 6.2955604,45.314474 3.6946468,48.441948 8.7204273,52.645318 17.099094,62.833972 23.849457,71.732901 30.690682,80.751613 36.205812,88.811365 35.160355,90.168962 34.115095,91.526718 24.84887,88.342881 14.321042,84.147367 3.9394798,80.010142 -8.1246271,74.650301 -13.455552,70.872165 c -2.217279,3.160521 -4.382291,6.35979 -6.493732,9.596501 z M 11.659835,39.201146 122.61227,138.65445 c 6.75149,-7.4867 14.0376,-14.52769 21.73979,-21.00442 L 49.054875,3.1861115 c -3.133564,2.5937724 -6.220531,5.2423049 -9.259369,7.9440645 4.3632,4.889657 11.171186,16.182681 16.557238,25.967031 5.458618,9.916176 9.746296,18.696355 8.512124,19.885719 -1.233999,1.18955 -9.951219,-3.320556 -19.772469,-9.026193 -9.68785,-5.628137 -20.856226,-12.716842 -25.590418,-17.245336 -2.660885,2.785739 -5.275368,5.61609 -7.842146,8.489749 z M 49.054875,3.1861115 144.35206,117.65003 c 7.70219,-6.47673 15.82045,-12.3892 24.23623,-17.61886 L 91.524553,-26.865155 c -3.502775,2.099345 -6.965485,4.259981 -10.386598,6.480375 3.585211,5.459047 8.635677,17.60558 12.508059,28.0438312 C 97.572116,18.242108 100.51826,27.534287 99.12272,28.528074 97.727324,29.522071 89.769724,23.797592 80.887819,16.729556 72.12724,9.7580688 62.107939,1.1243702 58.087232,-4.038682 55.035475,-1.6804592 52.024254,0.72824007 49.054875,3.1861115 Z M 91.524553,-26.865155 168.58829,100.03117 c 8.41579,-5.229653 17.1291,-9.776501 26.0214,-13.521993 l -56.2521,-136.75055 c -3.81634,1.549268 -7.59914,3.166357 -11.34688,4.849736 2.69379,5.911395 5.79595,18.66086 8.00727,29.521351 2.24368,11.0193556 3.7342,20.6151066 2.20465,21.3859747 -1.52945,0.7710959 -8.51682,-6.05585998 -16.22661,-14.3385718 -7.60103,-8.1658779 -16.21534,-18.1634929 -19.4071,-23.8439069 -3.389897,1.877972 -6.74512,3.812285 -10.064367,5.801635 z m 46.833037,-23.376218 56.2521,136.75055 c 8.89229,-3.745493 17.96356,-6.689629 27.09527,-8.713862 L 188.8427,-66.231259 c -4.07425,0.94354 -8.12149,1.961432 -12.1402,3.052145 1.69103,6.247739 2.64987,19.347488 3.05487,30.399592 0.41134,11.225073 0.33217,20.915968 -1.30406,21.436574 -1.63616,0.520847 -7.44268,-7.29669 -13.74758,-16.646355 -6.21124,-9.210759 -13.16061,-20.392311 -15.40997,-26.472341 -3.6753,1.344986 -7.32179,2.752178 -10.93817,4.220271 z m 50.48511,-15.989886 32.86226,144.026574 c 9.13171,-2.024233 18.32385,-3.128563 27.45787,-3.194442 L 242.2686,-74.123531 c -4.27651,0.282161 -8.53254,0.645206 -12.76658,1.087602 0.57857,6.470507 -0.80411,19.663033 -2.34912,30.678554 -1.57091,11.200208 -3.33387,20.77782 -5.04942,21.02082 -1.71552,0.243251 -6.13058,-8.45297 -10.79783,-18.721865 -4.5936,-10.106842 -9.61325,-22.290934 -10.80918,-28.653543 -3.90797,0.759266 -7.79299,1.586602 -11.65377,2.480704 z m 53.4259,-7.892272 6.89423,148.724404 c 2.28331,-0.01647 4.56298,0.03195 6.83717,0.147121 6.82337,-0.345541 13.69611,-0.09025 20.56819,0.715861 L 296.76986,-71.2337 c -4.18232,-0.619835 -8.38838,-1.162052 -12.61665,-1.625118 -0.61448,6.467364 -4.37592,19.102504 -7.91837,29.623569 -3.59962,10.690859 -7.10147,19.792878 -8.84641,19.698662 -1.3463,-0.07249 -3.28647,-5.714629 -5.40822,-13.387868 -2.03115,-7.345556 -4.51509,-17.706584 -5.98021,-25.586923 -0.90376,-4.821502 -1.50444,-9.1241 -1.52023,-12.195088 -4.0879,0.120812 -8.15873,0.315558 -12.21117,0.582935 z m 54.50126,2.889831 -20.20167,146.697555 c 9.1625,1.07478 18.32384,3.128731 27.36547,6.043307 L 348.81415,-59.20335 c -3.95224,-1.253386 -7.93474,-2.435685 -11.94598,-3.545364 -1.7246,6.243436 -7.56021,17.9968 -12.84174,27.71952 -5.36176,9.870413 -10.36565,18.17279 -12.04489,17.787307 -1.67931,-0.38524 -2.71967,-10.075249 -3.43867,-21.345949 -0.70723,-11.086123 -1.08266,-24.304912 0.0513,-30.675996 -3.91926,-0.725451 -7.86113,-1.382508 -11.82433,-1.969868 z m 52.04429,12.03035 -44.88049,140.710512 c 9.04162,2.914576 17.96354,6.689776 26.6472,11.207054 L 397.56197,-39.43106 c -3.6665,-1.831287 -7.36979,-3.598017 -11.10836,-5.298658 -2.72473,5.903494 -10.36982,16.589455 -17.16583,25.363863 -6.89332,8.900058 -13.19081,16.2887102 -14.77702,15.6393064 -1.58631,-0.6491725 -0.99268,-10.3693654 0.20468,-21.5736014 1.17906,-11.033055 3.05898,-24.056085 5.25135,-30.149859 -3.6895,-1.314077 -7.40748,-2.565626 -11.15264,-3.753341 z m 48.74782,19.77229 -66.98111,132.145276 c 8.68365,4.517278 17.12905,9.776634 25.21764,15.659514 l 86.50355,-121.00184 c -3.32511,-2.353537 -6.69355,-4.649049 -10.10379,-6.885003 -3.61256,5.446048 -12.80709,14.881957 -20.89064,22.5566003 -8.19431,7.7797927 -15.57696,14.1406367 -17.04279,13.2546607 -1.46596,-0.885763 0.64975,-10.4255241 3.61574,-21.3305266 2.92337,-10.7483024 6.8636,-23.3184834 10.00414,-29.0200704 -3.407,-1.849969 -6.84835,-3.643274 -10.32274,-5.378611 z m 44.74008,26.80295 -86.50355,121.00184 c 8.08859,5.88289 15.82038,12.38931 23.07681,19.4007 L 482.32309,20.494216 c -2.92807,-2.820137 -5.906,-5.58878 -8.93226,-8.304395 -4.38586,4.871043 -14.87422,12.874359 -24.01618,19.297729 -9.2647,6.509618 -17.5241,11.728571 -18.8422,10.63337 -1.31827,-1.09501 2.20763,-10.243725 6.79454,-20.616725 4.5237,-10.230064 10.3332,-22.09390679 14.30969,-27.286628 -3.07176,-2.333127 -6.18374,-4.615454 -9.33463,-6.845677 z M 482.32309,20.494216 378.87531,127.77443 c 7.25643,7.0114 14.03751,14.52779 20.22469,22.43061 L 516.91382,59.224637 c -2.47538,-3.231086 -5.00715,-6.417209 -7.59378,-9.556836 -5.04299,4.179445 -16.57287,10.565697 -26.54243,15.587252 -10.10452,5.089532 -19.03224,9.052511 -20.17527,7.775433 -1.14323,-1.276913 3.68097,-9.823968 9.74107,-19.432198 5.97788,-9.477885 13.46995,-20.382808 18.16801,-24.949532 -2.6838,-2.76355 -5.41368,-5.482165 -8.18833,-8.15454 z M 516.91382,59.224637 399.1,150.20504 c 6.18718,7.90281 11.78046,16.19207 16.66129,24.74921 l 129.60167,-72.10238 c -1.96704,-3.586384 -3.997,-7.134337 -6.08835,-10.642325 -5.5831,3.372898 -17.90389,7.954325 -28.46941,11.425165 -10.71375,3.51954 -20.10137,6.11246 -21.04199,4.68085 -0.94083,-1.43147 5.06977,-9.16625 12.45533,-17.77694 7.2841,-8.492393 16.27568,-18.184563 21.57911,-22.008784 -2.2431,-3.141238 -4.53815,-6.243406 -6.88383,-9.305199 z m 28.44914,43.627233 -129.60167,72.10238 c 4.88084,8.55715 9.04922,17.38218 12.38662,26.35656 l 138.81132,-50.64617 c -1.40305,-3.88604 -2.87556,-7.74017 -4.41598,-11.56087 -6.00629,2.45345 -18.86716,5.0382 -29.7971,6.81148 -11.09241,1.79963 -20.73148,2.90841 -21.44235,1.34962 -0.71109,-1.55869 6.374,-8.27058 14.93731,-15.65096 8.44112,-7.27507 18.75161,-15.49769 24.54296,-18.46438 -1.74966,-3.4662 -3.55713,-6.89918 -5.42111,-10.29766 z m 21.59627,47.81277 -138.81132,50.64617 c 3.33739,8.97438 5.84379,18.0981 7.40065,27.25261 l 145.44277,-26.61177 c -0.78341,-4.13003 -1.6428,-8.23469 -2.57664,-12.31245 -6.31396,1.42316 -19.4613,1.81526 -30.52552,1.74617 -11.24048,-0.0702 -20.92259,-0.55962 -21.37636,-2.21824 -0.45401,-1.65857 7.5937,-7.13695 17.18703,-13.05426 9.44867,-5.82808 20.898,-12.32002 27.05958,-14.31633 -1.20349,-3.73841 -2.47066,-7.44948 -3.80019,-11.1319 z m 14.0321,51.28701 -145.44277,26.61177 c 1.55685,9.15452 2.16417,18.33983 1.7034,27.43739 l 149.49604,8.2e-4 c -0.10812,-4.31838 -0.29875,-8.61792 -0.57037,-12.89709 -6.50886,0.28335 -19.68352,-1.71581 -30.65465,-3.77073 -11.15796,-2.08991 -20.67469,-4.29165 -20.84401,-6.02276 -0.16958,-1.7311 8.72884,-5.76536 19.20446,-9.98682 10.30786,-4.15385 22.71378,-8.64913 29.12898,-9.56462 -0.60459,-3.9579 -1.27872,-7.89432 -2.02108,-11.80796 z"
       inkscape:path-effect="#path-effect3668"
       inkscape:original-d="M 511.99998,256 A 255.99998,255.99998 0 0 1 256,511.99998 255.99998,255.99998 0 0 1 1.5258789e-5,256 255.99998,255.99998 0 0 1 256,1.5258789e-5 255.99998,255.99998 0 0 1 511.99998,256 Z"
       class="UnoptimicedTransforms"
       transform="matrix(0.77480052,0,0,0.77407778,57.387347,57.828615)" />
  </g>
</svg>
