<?xml version="1.0" encoding="UTF-8" standalone="no"?>
<!-- Created with Inkscape (http://www.inkscape.org/) -->

<svg
   width="511.43622"
   height="509.08408"
   viewBox="0 0 511.43622 509.08408"
   version="1.1"
   id="svg5"
   inkscape:export-filename="dtf.svg"
   inkscape:export-xdpi="96"
   inkscape:export-ydpi="96"
   xmlns:inkscape="http://www.inkscape.org/namespaces/inkscape"
   xmlns:sodipodi="http://sodipodi.sourceforge.net/DTD/sodipodi-0.dtd"
   xmlns="http://www.w3.org/2000/svg"
   xmlns:svg="http://www.w3.org/2000/svg">
  <sodipodi:namedview
     id="namedview7"
     pagecolor="#ffffff"
     bordercolor="#000000"
     borderopacity="0.25"
     inkscape:showpageshadow="2"
     inkscape:pageopacity="0.0"
     inkscape:pagecheckerboard="0"
     inkscape:deskcolor="#d1d1d1"
     inkscape:document-units="px"
     showgrid="false"
     showguides="true" />
  <defs
     id="defs2">
    <inkscape:path-effect
       effect="skeletal"
       id="path-effect3668"
       is_visible="true"
       lpeversion="1"
       pattern="m -164.45088,-233.52025 v 149.495957 h 41.00469 V -233.52025 h -13.9086 c -4e-5,13.44788 -3.44087,50.84953 -6.59374,50.84927 -3.15288,2.5e-4 -6.74098,-37.40139 -6.74102,-50.84927 z"
       copytype="repeated_stretched"
       prop_scale="1"
       scale_y_rel="false"
       spacing="0"
       normal_offset="0"
       tang_offset="0"
       prop_units="false"
       vertical_pattern="false"
       hide_knot="false"
       fuse_tolerance="0" />
  </defs>
  <g
     inkscape:label="Layer 1"
     inkscape:groupmode="layer"
     id="layer1"
     transform="translate(-3.6622583e-7,-2.9159114)">
    <path
       id="path3665"
       style="fill:#1a1a1a;stroke-width:20.1298"
       d="M 586.74796,256 H 437.252 c 0.46071,9.09756 -0.14667,18.28288 -1.70358,27.43739 l 145.44261,26.61252 c 1.13215,-5.96836 2.1056,-11.98971 2.91574,-18.05941 -6.51403,-0.79153 -19.07636,-3.46302 -29.66879,-6.13857 -10.69309,-2.70099 -19.72873,-5.43055 -19.55914,-7.16163 0.16934,-1.73112 9.58451,-2.80368 20.64986,-3.55574 10.95319,-0.74443 23.88791,-1.13895 30.45381,-0.73116 0.48752,-6.09297 0.81083,-12.22893 0.96545,-18.4034 z m -5.75693,54.04991 -145.44261,-26.61252 c -1.55692,9.15451 -4.06337,18.27823 -7.40081,27.25259 l 138.81108,50.64685 c 2.02759,-5.61575 3.91014,-11.29813 5.64301,-17.0425 -6.26577,-1.89654 -18.14604,-6.65625 -28.10079,-11.09473 -10.0434,-4.478 -18.44247,-8.70689 -17.98845,-10.36544 0.45378,-1.65863 9.84761,-1.06486 20.78638,0.1408 10.8345,1.19417 23.5163,3.08223 29.87018,4.63038 1.42636,-5.79696 2.70186,-11.65026 3.82201,-17.55543 z m -14.03234,51.28692 -138.81108,-50.64685 c -3.33744,8.97437 -7.50588,17.79939 -12.38675,26.35652 l 129.60136,72.10298 c 2.84262,-5.18272 5.55383,-10.44571 8.12901,-15.78433 -5.90145,-2.88895 -16.89555,-9.496 -26.04403,-15.48875 -9.22521,-6.04302 -16.85506,-11.58138 -16.14395,-13.14006 0.71088,-1.55879 9.89287,0.56928 20.49242,3.56481 10.50476,2.96874 22.69565,6.92806 28.72316,9.50443 2.28563,-5.42138 4.43374,-10.91245 6.43986,-16.46875 z M 545.36222,409.14948 415.76086,337.0465 c -4.88088,8.55713 -10.4742,16.84637 -16.66141,24.74916 l 117.81343,90.98092 c 3.57723,-4.66927 7.03669,-9.43245 10.37376,-14.2849 -5.42029,-3.76742 -15.32566,-11.9836 -23.4985,-19.32065 -8.23855,-7.39603 -14.9665,-14.05402 -14.02566,-15.48548 0.94064,-1.43161 9.72031,2.09874 19.76799,6.71629 9.96243,4.57837 21.42751,10.39947 27.01274,13.891 3.06532,-4.96623 6.00648,-10.01551 8.81901,-15.14336 z m -28.44934,43.6271 -117.81343,-90.98092 c -6.18722,7.9028 -12.96833,15.41916 -20.22479,22.43053 l 103.44732,107.28066 c 4.23142,-4.0754 8.3587,-8.25835 12.37723,-12.5442 -4.82229,-4.5307 -13.43636,-14.12034 -20.4642,-22.59044 -7.08339,-8.53704 -12.77679,-16.12481 -11.63356,-17.40171 1.14304,-1.27707 9.32991,3.52354 18.61307,9.59526 9.20684,6.02179 19.71257,13.49771 24.73893,17.79009 3.76544,-4.43152 7.42008,-8.95943 10.95943,-13.57927 z m -34.5909,38.73027 -103.44732,-107.28066 c -7.25646,7.01136 -14.98827,13.51775 -23.07688,19.4006 l 86.503,121.00221 c 4.80519,-3.40111 9.51988,-6.9234 14.13946,-10.56224 -4.10806,-5.17784 -11.22709,-15.90711 -16.94116,-25.2981 -5.75974,-9.46605 -10.28593,-17.79374 -8.96766,-18.88873 1.31811,-1.0952 8.72168,4.84365 17.0277,12.20169 8.23801,7.29779 17.55077,16.22399 21.9017,21.20168 4.386,-3.81722 8.67455,-7.7442 12.86116,-11.77645 z m -40.0212,33.12215 -86.503,-121.00221 c -8.08861,5.88284 -16.53403,11.14216 -25.2177,15.65939 l 66.9805,132.14557 c 5.29853,-2.6464 10.5202,-5.42761 15.6604,-8.33902 -3.27852,-5.7084 -8.69685,-17.34438 -12.92933,-27.44363 -4.26761,-10.18305 -7.49393,-19.06081 -6.02796,-19.94656 1.46584,-0.88597 7.89562,6.05909 15.01184,14.5356 7.05656,8.40544 14.9415,18.57925 18.50108,24.1258 4.92699,-3.12337 9.76987,-6.36984 14.52417,-9.73494 z m -44.7402,26.80275 -66.9805,-132.14557 c -8.68367,4.51724 -17.60559,8.29239 -26.64723,11.20691 l 44.8798,140.71073 c 5.71145,-1.81126 11.35969,-3.77098 16.94009,-5.87453 -2.33491,-6.12248 -5.84447,-18.43205 -8.42876,-29.02704 -2.60698,-10.68805 -4.40076,-19.92604 -2.81445,-20.5752 1.58622,-0.64939 6.85173,7.16986 12.56551,16.59699 5.66357,9.34427 11.88371,20.56396 14.53706,26.56242 5.3884,-2.34994 10.70606,-4.83633 15.94848,-7.45471 z m -48.74793,19.77207 -44.8798,-140.71073 c -9.04163,2.91453 -18.20297,4.96842 -27.36548,6.04315 l 20.20091,146.69769 c 6.04395,-0.89571 12.03833,-1.95351 17.97851,-3.16878 -1.27839,-6.42095 -2.66877,-19.16926 -3.43941,-30.04833 -0.77787,-10.98104 -1.00646,-20.38941 0.67285,-20.77464 1.67926,-0.38547 5.59001,8.17596 9.68871,18.38586 4.06038,10.11444 8.37601,22.17794 10.00963,28.51156 5.77025,-1.49694 11.48311,-3.1437 17.13408,-4.93578 z m -52.04437,12.03011 -20.20091,-146.69769 c -6.8718,0.80603 -13.74427,1.06129 -20.56737,0.71576 -2.27446,0.11518 -4.5544,0.1636 -6.83798,0.14712 l -6.89504,148.7243 c 4.55507,0.30056 9.13336,0.50936 13.73302,0.62454 1.64089,-0.0411 3.27905,-0.0941 4.91442,-0.15893 -0.10966,-6.60546 0.83097,-19.55435 2.03869,-30.50749 1.21973,-11.06203 2.689,-20.45094 4.43396,-20.54488 1.74495,-0.0942 4.11045,9.07737 6.38143,19.90219 2.24837,10.71703 4.41708,23.42014 4.91881,29.97322 6.07253,-0.56438 12.10101,-1.29192 18.08097,-2.17814 z m -54.5013,2.88949 6.89504,-148.7243 c -9.13403,-0.0659 -18.32617,-1.17033 -27.45787,-3.19462 l -32.863,144.0264 c 5.88775,1.36355 11.83189,2.57182 17.8278,3.62019 1.07829,-6.46276 4.29455,-18.87387 7.43035,-29.3226 3.16512,-10.54646 6.28733,-19.43539 8.00284,-19.19213 1.71556,0.24302 2.35915,9.67071 2.60603,20.72435 0.2444,10.94319 0.0484,23.83722 -0.65497,30.36072 6.02642,0.7297 12.09918,1.29852 18.21378,1.70199 z m -53.42583,-7.89252 32.863,-144.0264 c -9.13171,-2.02429 -18.20297,-4.96848 -27.09526,-8.71401 l -56.25275,136.75029 c 5.51504,2.2389 11.1001,4.33615 16.75057,6.28715 2.15526,-6.18561 7.3993,-17.86339 12.24597,-27.63241 4.88914,-9.85464 9.46321,-18.07384 11.09935,-17.55298 1.63623,0.52062 0.6465,9.87935 -1.02237,20.75324 -1.65323,10.77192 -4.07889,23.35316 -5.89463,29.63624 5.71051,1.64865 11.48072,3.14976 17.30612,4.49888 z m -50.48501,-15.99012 56.25275,-136.75029 c -8.89228,-3.74554 -17.60558,-8.29244 -26.02135,-13.52214 l -77.064316,126.896 c 5.0619,3.03382 10.207466,5.93964 15.432086,8.71284 3.11931,-5.79212 10.15088,-16.53299 16.49945,-25.45345 6.40116,-8.99434 12.23724,-16.41114 13.76668,-15.64003 1.52955,0.77088 -0.96147,9.87015 -4.37826,20.35166 -3.38667,10.38915 -7.831,22.42052 -10.64681,28.34837 5.31505,2.48801 10.70313,4.84185 16.15977,7.05704 z m -46.832916,-23.37643 77.064316,-126.896 c -8.41577,-5.22969 -16.53401,-11.1422 -24.23617,-17.61896 L 49.053686,508.8129 c 4.528343,3.74832 9.153996,7.38228 13.872332,10.89726 3.969088,-5.28173 12.550655,-14.88328 20.190824,-22.78573 7.70117,-7.96554 14.609408,-14.44729 16.004791,-13.45328 1.395537,0.9938 -2.464767,9.64313 -7.461604,19.51961 -4.954874,9.79353 -11.208986,21.04064 -14.911507,26.49709 4.840006,3.24781 9.7664,6.37481 14.774702,9.3765 z M 49.053686,508.8129 144.35137,394.34939 c -7.70216,-6.47676 -14.98824,-13.51778 -21.7397,-21.00452 L 11.658807,472.7977 c 3.914366,4.3824 7.93968,8.66408 12.071317,12.84042 4.703398,-4.6546 14.59982,-12.91406 23.320071,-19.62924 8.789176,-6.76826 16.579726,-12.18229 17.813713,-10.99274 1.234167,1.18938 -3.86339,9.19828 -10.272432,18.25708 -6.356541,8.9846 -14.21413,19.21401 -18.688716,24.08242 4.285395,3.92805 8.67053,7.74863 13.150926,11.45726 z M 11.658807,472.7977 122.61167,373.34487 c -6.75146,-7.48673 -12.96829,-15.41917 -18.53195,-23.67878 l -124.02985,81.86394 c 3.219967,4.93607 6.564522,9.78505 10.0290388,14.54232 5.3214209,-3.91143 16.299191,-10.62464 25.8871932,-15.98399 9.66518,-5.40249 18.148192,-9.61614 19.193439,-8.25838 1.04545,1.35761 -5.157337,8.53558 -12.810735,16.56407 C 14.758282,446.35659 5.5012232,455.33447 0.37036674,459.49839 4.0215812,464.0271 7.7858883,468.4617 11.658807,472.7977 Z M -19.95013,431.53003 104.07972,349.66609 C 98.516053,341.40648 93.605562,332.81971 89.466789,324.02431 l -134.528632,61.69688 c 2.445147,5.4093 5.028521,10.74516 7.745497,16.00295 5.822823,-3.05326 17.649103,-8.01399 27.8921931,-11.84998 10.32917863,-3.86824 19.3148046,-6.74885 20.1439679,-5.25023 0.829386,1.4985 -6.3466093,7.65506 -15.0765134,14.4406 -8.6559926,6.72808 -19.1101756,14.21913 -24.7806776,17.56286 2.937465,5.04981 6.001374,10.01885 9.187246,14.90264 z M -45.061843,385.72119 89.466789,324.02431 c -4.138772,-8.79539 -7.505826,-17.7994 -9.982615,-26.89348 L -62.96505,336.08244 c 1.589906,5.80211 3.331678,11.54443 5.220691,17.22232 6.20789,-2.08132 18.64927,-5.08088 29.33507,-7.22721 10.781174,-2.16548 20.0795638,-3.58039 20.6653003,-1.96827 0.5859752,1.61204 -7.4312073,6.55671 -17.0697673,11.88665 -9.552609,5.28241 -21.002246,11.04899 -27.09543,13.45798 2.144145,5.49133 4.428086,10.91525 6.847343,16.26728 z M -62.96505,336.08244 79.484174,297.13083 c -2.476788,-9.09408 -4.063311,-18.27823 -4.641022,-27.4339 L -72.94847,283.32507 c 0.654244,6.11451 1.473993,12.18287 2.454622,18.20043 6.477682,-0.99671 19.298633,-1.8242 30.215824,-2.11567 11.021165,-0.29425 20.44247,-0.1108 20.757436,1.58748 0.315216,1.69825 -8.411129,5.24054 -18.790498,8.90223 -10.280744,3.6269 -22.523419,7.4286 -28.922695,8.7897 1.271256,5.85329 2.695659,11.65251 4.268731,17.3932 z m -9.98342,-52.75737 147.791622,-13.62814 c -0.288846,-4.5777 -0.325505,-9.14828 -0.09516,-13.69693 -0.230361,-4.54892 -0.193684,-9.11977 0.09521,-13.69775 L -72.948298,228.67332 c -0.654273,6.11451 -1.14304,12.27518 -1.461675,18.47738 6.595147,0.19714 19.420939,1.73359 30.269489,3.44979 10.954752,1.73299 20.258921,3.64173 20.241797,5.39882 0,0 -7e-6,6.9e-4 -7e-6,6.9e-4 0.01468,1.75702 -9.28902,3.70633 -20.24085,5.48699 -10.841252,1.76268 -23.670647,3.35636 -30.260335,3.55768 0.318796,6.13567 0.804093,12.23063 1.451409,18.2804 z m 1.72e-4,-54.65175 147.791502,13.62893 c 0.57777,-9.15567 2.16435,-18.33982 4.641191,-27.4339 L -62.964633,175.91604 c -1.589932,5.8021 -3.027998,11.66401 -4.309572,17.5811 6.404316,1.35805 18.6513,5.10394 28.945862,8.68698 10.3893,3.61602 19.123229,7.119 18.808001,8.81724 -0.314981,1.69829 -9.743294,1.92116 -20.771931,1.67334 -10.920094,-0.24537 -23.75836,-1.01864 -30.232414,-2.01062 -0.966902,5.9549 -1.776266,11.95948 -2.423611,18.00924 z m 9.983665,-52.75728 142.449028,38.95231 c 2.476841,-9.09407 5.843945,-18.09807 9.982763,-26.89345 L -45.061201,126.27739 c -2.445171,5.40929 -4.752115,10.89202 -6.916206,16.44356 6.098181,2.40692 17.56073,8.12027 27.133473,13.36207 9.655358,5.28703 17.6863872,10.19441 17.1004015,11.80644 -0.5857508,1.61212 -9.8974725,0.23468 -20.6932025,-1.88692 -10.696123,-2.10203 -23.16198,-5.05208 -29.367085,-7.12841 -1.86595,5.6191 -3.587715,11.30123 -5.160813,17.04191 z m 17.903432,-49.63865 134.528359,61.69751 c 4.138818,-8.79538 9.049352,-17.38214 14.613052,-25.64173 L -19.949284,80.468666 c -3.219989,4.936046 -6.31539,9.959173 -9.281577,15.064753 5.675484,3.342526 16.150486,10.783771 24.8323204,17.475021 8.7529284,6.74605 15.9483966,12.86797 15.1190006,14.36646 -0.8291765,1.49861 -9.83381855,-1.34712 -20.1840002,-5.17466 -10.2602258,-3.79428 -22.1174418,-8.71055 -27.9383538,-11.75872 -2.68543,5.20374 -5.240026,10.48386 -7.659307,15.83587 z M -19.949284,80.468666 104.08021,162.33317 c 5.5637,-8.25959 11.78057,-16.19201 18.53206,-23.67872 L 11.659835,39.201146 C 7.7454496,43.58353 3.9420129,48.066633 0.25415088,52.64583 5.3900146,56.809366 14.675082,65.741623 22.296556,73.671689 29.978567,81.664744 36.205812,88.811365 35.160355,90.168962 34.115095,91.526718 25.60802,87.344715 15.91603,81.97908 6.3047326,76.658118 -4.7098243,69.98388 -10.030193,66.07754 c -3.42534,4.708809 -6.733197,9.507345 -9.919091,14.391126 z M 11.659835,39.201146 122.61227,138.65445 c 6.75149,-7.4867 14.0376,-14.52769 21.73979,-21.00442 L 49.054875,3.1861115 C 44.526514,6.934412 40.095463,10.797071 35.766347,14.769463 c 4.479643,4.868833 12.371742,15.057446 18.763726,24.01457 6.442605,9.02806 11.568967,17.009529 10.334795,18.198893 -1.233999,1.18955 -9.053018,-4.1967 -17.874174,-10.932576 -8.749036,-6.680806 -18.687518,-14.907321 -23.390692,-19.556874 -4.08568,4.134305 -8.067229,8.371688 -11.940167,12.70767 z M 49.054875,3.1861115 144.35206,117.65003 c 7.70219,-6.47673 15.82045,-12.3892 24.23623,-17.61886 L 91.524553,-26.865155 c -5.061914,3.033795 -10.040159,6.195589 -14.930107,9.480755 3.707616,5.457709 10.002123,16.66944053 14.996284,26.4411581 5.034711,9.8510599 8.92753,18.4775289 7.53199,19.4713159 C 97.727324,29.522071 90.786849,23.063597 83.04917,15.125328 75.375382,7.2526076 66.747082,-2.3226653 62.777408,-7.5993941 58.110958,-4.1191627 53.535287,-0.52250049 49.054875,3.1861115 Z M 91.524553,-26.865155 168.58829,100.03117 c 8.41579,-5.229653 17.1291,-9.776501 26.0214,-13.521993 l -56.2521,-136.75055 c -5.51505,2.23887 -10.96007,4.619378 -16.33042,7.136896 2.82088,5.929972 7.31097,17.931968 10.74007,28.305623 3.45833,10.4620566 5.98494,19.5436746 4.45539,20.3145427 -1.52945,0.7710959 -7.40089,-6.6275801 -13.84245,-15.6003907 -6.38641,-8.895984 -13.46871,-19.617945 -16.58944,-25.405086 -5.16765,2.746589 -10.25787,5.62296 -15.266187,8.624633 z m 46.833037,-23.376218 56.2521,136.75055 c 8.89229,-3.745493 17.96356,-6.689629 27.09527,-8.713862 L 188.8427,-66.231259 c -5.88776,1.363523 -11.71913,2.882323 -17.48948,4.551772 1.82069,6.286088 4.29706,18.844565 5.99511,29.607966 1.71346,10.861049 2.74121,20.207967 1.10498,20.728573 -1.63616,0.520847 -6.24808,-7.686008 -11.18088,-17.525513 -4.88813,-9.750409 -10.18614,-21.417357 -12.3437,-27.597962 -5.58928,1.933376 -11.11449,4.009886 -16.57114,6.22505 z m 50.48511,-15.989886 32.86226,144.026574 c 9.13171,-2.024233 18.32385,-3.128563 27.45787,-3.194442 L 242.2686,-74.123531 c -6.18005,0.407755 -12.31734,0.984425 -18.40726,1.725385 0.70802,6.527322 0.95936,19.405961 0.76137,30.348185 -0.19989,11.048038 -0.80368,20.470406 -2.51923,20.713406 -1.71552,0.243251 -4.87744,-8.639762 -8.08883,-19.17811 -3.18039,-10.43659 -6.45296,-22.845638 -7.53457,-29.303352 -5.93134,1.040593 -11.81196,2.237673 -17.63738,3.586758 z m 53.4259,-7.892272 6.89423,148.724404 c 2.28331,-0.01647 4.56298,0.03195 6.83717,0.147121 6.82337,-0.345541 13.69611,-0.09025 20.56819,0.715861 L 296.76986,-71.2337 c -6.04394,-0.895734 -12.13746,-1.629372 -18.27592,-2.196289 -0.49784,6.558144 -2.60943,19.258715 -4.81182,29.984395 -2.22365,10.829181 -4.54875,20.003223 -6.29369,19.909007 -1.74497,-0.09396 -3.2547,-9.484711 -4.52237,-20.548482 -1.25464,-10.950134 -2.25281,-23.910404 -2.14759,-30.511679 -1.57027,-0.06134 -3.14311,-0.111767 -4.71847,-0.151215 -4.59912,0.115166 -9.17687,0.323927 -13.7314,0.624432 z m 54.50126,2.889831 -20.20167,146.697555 c 9.1625,1.07478 18.32384,3.128731 27.36547,6.043307 L 348.81415,-59.20335 c -5.71144,-1.811288 -11.48609,-3.47412 -17.31932,-4.983869 -1.63083,6.338656 -5.8912,18.408671 -9.9085,28.538574 -4.05366,10.221605 -7.92555,18.792241 -9.60479,18.406758 -1.67931,-0.38524 -1.48972,-9.802262 -0.75771,-20.792607 0.72492,-10.883874 2.06224,-23.651368 3.33581,-30.068895 -5.87841,-1.19913 -11.80983,-2.244061 -17.78978,-3.130311 z m 52.04429,12.03035 -44.88049,140.710512 c 9.04162,2.914576 17.96354,6.689776 26.6472,11.207054 L 397.56197,-39.43106 c -5.29851,-2.646421 -10.67388,-5.158025 -16.12146,-7.530185 -2.6515,6.00346 -8.81919,17.2381 -14.44304,26.60399 -5.67168,9.44554 -10.9005,17.2801102 -12.48671,16.6307064 -1.58631,-0.6491725 0.1706,-9.9019804 2.73444,-20.6062564 2.54055,-10.607071 6.00184,-22.942794 8.33172,-29.062711 -5.52272,-2.078286 -11.1118,-4.015725 -16.76277,-5.807834 z m 48.74782,19.77229 -66.98111,132.145276 c 8.68365,4.517278 17.12905,9.776634 25.21764,15.659514 l 86.50355,-121.00184 c -4.80517,-3.401133 -9.70083,-6.681088 -14.68235,-9.835239 -3.55857,5.551535 -11.39469,15.748024 -18.41546,24.1806438 -7.07768,8.5009872 -13.47358,15.4668292 -14.93941,14.5808532 -1.46596,-0.885763 1.72622,-9.7838679 5.95404,-19.9894324 4.19153,-10.1179856 9.56673,-21.7864216 12.84016,-27.4931266 -5.08747,-2.877873 -10.25465,-5.628249 -15.49706,-8.246649 z m 44.74008,26.80295 -86.50355,121.00184 c 8.08859,5.88289 15.82038,12.38931 23.07681,19.4007 L 482.32309,20.494216 c -4.2314,-4.075423 -8.56693,-8.043308 -13.00196,-11.8990278 -8.81464,10.0950078 -36.15248,35.7161338 -38.78868,33.5257318 -1.31827,-1.09501 3.17718,-9.447924 8.90112,-18.942134 5.67662,-9.415723 12.75813,-20.1831438 16.8611,-25.3601419 -4.57263,-3.5978894 -9.23834,-7.0816346 -13.99262,-10.4467541 z M 482.32309,20.494216 378.87531,127.77443 c 7.25643,7.0114 14.03751,14.52779 20.22469,22.43061 L 516.91382,59.224637 c -3.57721,-4.669293 -7.27218,-9.244686 -11.0803,-13.721553 -5.02699,4.297448 -15.49322,11.809399 -24.67394,17.867659 -9.25369,6.106418 -17.41421,10.936821 -18.55724,9.659743 -1.14323,-1.276913 4.52346,-8.894148 11.57568,-17.464362 6.99457,-8.500159 15.5773,-18.133085 20.39456,-22.663757 -3.97824,-4.238336 -8.0629,-8.37588 -12.24949,-12.408151 z M 516.91382,59.224637 399.1,150.20504 c 6.18718,7.90281 11.78046,16.19207 16.66129,24.74921 l 129.60167,-72.10238 c -2.8426,-5.182739 -5.8166,-10.28522 -8.91739,-15.302814 -5.58671,3.496632 -17.01785,9.359506 -26.95999,13.978024 -10.02369,4.6564 -18.78175,8.22009 -19.72237,6.78848 -0.94083,-1.43147 5.76508,-8.12254 13.97773,-15.556113 8.14437,-7.371778 18.02523,-15.63576 23.44053,-19.403971 -3.30427,-4.799214 -6.72832,-9.510987 -10.26765,-14.130839 z m 28.44914,43.627233 -129.60167,72.10238 c 4.88084,8.55715 9.04922,17.38218 12.38662,26.35656 l 138.81132,-50.64617 c -2.02757,-5.61577 -4.20018,-11.16492 -6.51322,-16.64282 -6.02986,2.58142 -18.19297,6.58778 -28.68392,9.59963 -10.58168,3.03789 -19.74742,5.20221 -20.45829,3.64342 -0.71109,-1.55869 6.90201,-7.1331 16.10724,-13.2174 9.12541,-6.03154 20.10255,-12.6902 25.99902,-15.58078 -2.55074,-5.28052 -5.2346,-10.48696 -8.0471,-15.61482 z m 21.59627,47.81277 -138.81132,50.64617 c 3.33739,8.97438 5.84379,18.0981 7.40065,27.25261 l 145.44277,-26.61177 c -1.13211,-5.96837 -2.42291,-11.88376 -3.86777,-17.74155 -6.3571,1.55303 -19.01791,3.49299 -29.84573,4.73246 -10.92767,1.2509 -20.31125,1.88319 -20.76502,0.22457 -0.45401,-1.65857 7.93427,-5.92584 17.96423,-10.44821 9.93769,-4.48076 21.80927,-9.29511 28.07002,-11.1942 -1.71763,-5.68226 -3.58174,-11.30378 -5.58783,-16.86008 z m 14.0321,51.28701 -145.44277,26.61177 c 1.55685,9.15452 2.16417,18.33983 1.7034,27.43739 l 149.49604,8.2e-4 c -0.15624,-6.24055 -0.48481,-12.44177 -0.98107,-18.59902 -6.5699,0.41234 -19.49121,0.0743 -30.44541,-0.62347 -11.06166,-0.70457 -20.47323,-1.73698 -20.64255,-3.46809 -0.16958,-1.7311 8.86185,-4.50073 19.54869,-7.24854 10.58201,-2.72085 23.14457,-5.44908 29.65354,-6.24421 -0.80496,-6.00443 -1.76974,-11.96147 -2.88987,-17.86665 z"
       transform="matrix(0.70704153,0,0,0.70734912,74.715464,76.376548)"
       inkscape:original-d="M 511.99998,256 A 255.99998,255.99998 0 0 1 256,511.99998 255.99998,255.99998 0 0 1 1.5258789e-5,256 255.99998,255.99998 0 0 1 256,1.5258789e-5 255.99998,255.99998 0 0 1 511.99998,256 Z"
       inkscape:path-effect="#path-effect3668"
       class="UnoptimicedTransforms" />
  </g>
</svg>
